<svg xmlns="http://www.w3.org/2000/svg" viewBox="0 0 512 512">
  <rect width="512" height="512" fill="#030303"/>
  <g fill="none" stroke="#f7f7f7" stroke-width="12">
    <path d="M120 120h272v272H120z"/>
    <path d="M256 48l112 176H144z"/>
    <circle cx="256" cy="256" r="136"/>
  </g>
  <path fill="#f7f7f7" d="M104 168h150c59 0 96 31 96 78c0 27-12 49-35 63c31 13 47 38 47 71c0 54-42 86-107 86H104V168Zm134 116c32 0 51-14 51-39c0-24-19-38-51-38h-69v77h69Zm10 142c35 0 56-17 56-45c0-27-21-43-58-43h-77v88h79Zm129-258h94v58h-28v240h-66V168Z"/>
</svg>
