<svg xmlns="http://www.w3.org/2000/svg" viewBox="0 0 900 640" role="img" aria-labelledby="title">
  <title id="title">Bruno Tooledoo Barber Studio</title>
  <rect width="900" height="640" fill="#030303"/>
  <g fill="none" stroke="#f7f7f7" stroke-width="10" stroke-linecap="square" stroke-linejoin="miter">
    <path d="M258 150h384v310H258z"/>
    <path d="M450 54l132 214H318z"/>
    <path d="M168 420l150-246 150 246z"/>
    <path d="M432 420l150-246 150 246z"/>
    <path d="M450 150a155 155 0 1 0 0 310a155 155 0 1 0 0-310z"/>
    <path d="M450 150v310M298 304h304M338 214c42-30 184-30 224 0M338 394c42 30 184 30 224 0"/>
  </g>
  <g fill="#f7f7f7">
    <path d="M268 212h178c70 0 112 36 112 92c0 30-13 55-39 72c35 15 54 44 54 82c0 63-48 100-124 100H268V212Zm160 134c38 0 61-17 61-46c0-28-22-44-61-44h-82v90h82Zm12 166c42 0 66-20 66-53c0-32-25-50-68-50h-92v103h94Z"/>
    <path d="M590 212h178v67h-54v279h-74V279h-50z"/>
  </g>
  <g fill="#f7f7f7" font-family="Arial Black, Impact, sans-serif" text-anchor="middle">
    <text x="450" y="590" font-size="66" letter-spacing="2">BrunoTooledoo</text>
    <text x="450" y="626" font-size="28" letter-spacing="14">BARBER STUDIO</text>
  </g>
</svg>
